<?xml version="1.0" encoding="UTF-8"?>
<svg width="12px" height="8px" viewBox="0 0 12 8" version="1.1" xmlns="http://www.w3.org/2000/svg" xmlns:xlink="http://www.w3.org/1999/xlink">
    <!-- Generator: Sketch 56.3 (81716) - https://sketch.com -->
    <title>ic_arrow_down</title>
    <desc>Created with Sketch.</desc>
    <defs>
        <path d="M15.875,8.9999928 L11.995,12.8799928 L8.115,8.9999928 C7.92816847,8.81274013 7.67451764,8.7075072 7.41,8.7075072 C7.14548236,8.7075072 6.89183153,8.81274013 6.705,8.9999928 C6.315,9.3899928 6.315,10.0199928 6.705,10.4099928 L11.295,14.9999928 C11.685,15.3899928 12.315,15.3899928 12.705,14.9999928 L17.295,10.4099928 C17.685,10.0199928 17.685,9.3899928 17.295,8.9999928 C16.905,8.6199928 16.265,8.6099928 15.875,8.9999928 L15.875,8.9999928 Z" id="path-1"></path>
    </defs>
    <g id="PA---Request-Info" stroke="none" stroke-width="1" fill="none" fill-rule="evenodd">
        <g id="Request-Info---1" transform="translate(-886.000000, -292.000000)">
            <g id="Main-Pane" transform="translate(0.000000, 80.000000)">
                <g id="Section">
                    <g id="Form" transform="translate(524.000000, 79.000000)">
                        <g id="Text-Field-/-Outlined-/-Unfilled-/-Enabled" transform="translate(0.000000, 100.000000)">
                            <g id="Icon-/-Keyboard-Arrow---Down-/-Rounded" transform="translate(356.000000, 25.000000)">
                                <mask id="mask-2" fill="white">
                                    <use xlink:href="#path-1"></use>
                                </mask>
                                <g id="icon/navigation/expand_more_24px" fill-rule="nonzero"></g>
                                <g id="✱-/-Color-/-Icons-/-Black-/-Disabled" mask="url(#mask-2)" fill="#000000" fill-opacity="0.38" fill-rule="evenodd">
                                    <rect id="Rectangle" x="0" y="0" width="24" height="24"></rect>
                                </g>
                            </g>
                        </g>
                    </g>
                </g>
            </g>
        </g>
    </g>
</svg>